<?xml version="1.0" encoding="UTF-8"?>
<svg version="1.1" xmlns="http://www.w3.org/2000/svg" width="1257" height="1024">
<path d="M0 0 C414.81 0 829.62 0 1257 0 C1257 337.92 1257 675.84 1257 1024 C842.19 1024 427.38 1024 0 1024 C0 686.08 0 348.16 0 0 Z " fill="#E291FD" transform="translate(0,0)"/>
<path d="M0 0 C3.63 0 7.26 0 11 0 C11.64622041 2.41656376 12.29199004 4.83324646 12.9375 7.25 C13.11990234 7.93191406 13.30230469 8.61382812 13.49023438 9.31640625 C13.99588547 11.21029944 14.49805846 13.10512028 15 15 C15.20625 15.7425 15.4125 16.485 15.625 17.25 C16.24625512 20.14919055 16.05674486 23.04926702 16 26 C16.66 26 17.32 26 18 26 C18.103125 24.824375 18.20625 23.64875 18.3125 22.4375 C20.15945184 5.68109631 20.15945184 5.68109631 23 0 C26.3 0 29.6 0 33 0 C33 11.22 33 22.44 33 34 C31.02 34 29.04 34 27 34 C26.505 22.12 26.505 22.12 26 10 C25.54625 12.475 25.0925 14.95 24.625 17.5 C23.59490321 23.05522495 22.47783572 28.5433758 21 34 C18.36 34 15.72 34 13 34 C11.35 26.74 9.7 19.48 8 12 C7.67 19.26 7.34 26.52 7 34 C4.69 34 2.38 34 0 34 C0 22.78 0 11.56 0 0 Z " fill="#28135E" transform="translate(546,503)"/>
<path d="M0 0 C0.99 0 1.98 0 3 0 C5.33333333 0 7.66666667 0 10 0 C10.08719631 4.56237931 10.14045922 9.12454386 10.1875 13.6875 C10.21263672 14.98107422 10.23777344 16.27464844 10.26367188 17.60742188 C10.27333984 18.85458984 10.28300781 20.10175781 10.29296875 21.38671875 C10.3086792 22.53358154 10.32438965 23.68044434 10.34057617 24.86206055 C9.96082027 28.36098718 9.10086162 30.20389148 7 33 C2.01465513 35.73363077 -3.46103056 35.8387345 -9 35 C-12.1875 32.625 -12.1875 32.625 -14 30 C-14 29.34 -14 28.68 -14 28 C-11.36 28 -8.72 28 -6 28 C-6 28.66 -6 29.32 -6 30 C-2.535 29.505 -2.535 29.505 1 29 C1.66 27.02 2.32 25.04 3 23 C2.4328125 23.33 1.865625 23.66 1.28125 24 C-2.54526609 25.67737692 -6.06143663 25.20686254 -10 24 C-13.57816738 20.59637737 -14.23972692 17.70765614 -14.375 12.9375 C-14.1317604 7.70392536 -13.42530747 4.54747668 -9.8125 0.625 C-6.10346005 -1.51800086 -4.09974445 -0.91105432 0 0 Z " fill="#28145F" transform="translate(680,512)"/>
<path d="M0 0 C3.43599136 0.41231896 5.32280697 1.39698139 8.125 3.375 C8.640625 2.859375 9.15625 2.34375 9.6875 1.8125 C12.125 0.375 12.125 0.375 15.625 0.4375 C19.64703596 1.51483106 20.77992362 1.96444326 23.125 5.375 C23.62052856 8.96949384 23.50031145 12.50542699 23.375 16.125 C23.35695313 17.10855469 23.33890625 18.09210937 23.3203125 19.10546875 C23.27324126 21.52963783 23.20750742 23.95182059 23.125 26.375 C20.815 26.375 18.505 26.375 16.125 26.375 C15.63 16.97 15.63 16.97 15.125 7.375 C13.475 7.375 11.825 7.375 10.125 7.375 C8.61078999 8.88921001 8.91190144 10.29972768 8.80859375 12.41015625 C8.76669922 13.21904297 8.72480469 14.02792969 8.68164062 14.86132812 C8.64232422 15.71146484 8.60300781 16.56160156 8.5625 17.4375 C8.51931641 18.29150391 8.47613281 19.14550781 8.43164062 20.02539062 C8.32523298 22.14172037 8.22458269 24.25833813 8.125 26.375 C6.145 26.375 4.165 26.375 2.125 26.375 C2.06441406 25.08722656 2.00382813 23.79945313 1.94140625 22.47265625 C1.85701753 20.79425841 1.7723687 19.11587364 1.6875 17.4375 C1.64818359 16.58736328 1.60886719 15.73722656 1.56835938 14.86132812 C1.50551758 13.64799805 1.50551758 13.64799805 1.44140625 12.41015625 C1.40474854 11.6612915 1.36809082 10.91242676 1.33032227 10.14086914 C1.30728937 8.35038674 1.30728937 8.35038674 0.125 7.375 C-1.525 7.375 -3.175 7.375 -4.875 7.375 C-5.205 13.645 -5.535 19.915 -5.875 26.375 C-8.185 26.375 -10.495 26.375 -12.875 26.375 C-12.875 18.125 -12.875 9.875 -12.875 1.375 C-10.895 1.375 -8.915 1.375 -6.875 1.375 C-6.545 2.035 -6.215 2.695 -5.875 3.375 C-5.50375 2.88 -5.1325 2.385 -4.75 1.875 C-2.875 0.375 -2.875 0.375 0 0 Z " fill="#28135E" transform="translate(735.875,510.625)"/>
<path d="M0 0 C1.13308594 -0.00773437 2.26617188 -0.01546875 3.43359375 -0.0234375 C6.89654146 0.41753712 8.07631554 0.99402817 10.5625 3.375 C11.0925293 5.51977539 11.0925293 5.51977539 11.13671875 7.97265625 C11.16443359 8.85630859 11.19214844 9.73996094 11.22070312 10.65039062 C11.23037109 11.57013672 11.24003906 12.48988281 11.25 13.4375 C11.29201119 15.26180425 11.33741816 17.08603444 11.38671875 18.91015625 C11.39791748 19.718479 11.40911621 20.52680176 11.4206543 21.35961914 C11.43807573 23.44557993 11.43807573 23.44557993 12.5625 25.375 C9.9225 25.375 7.2825 25.375 4.5625 25.375 C4.5625 24.715 4.5625 24.055 4.5625 23.375 C3.5725 24.1484375 3.5725 24.1484375 2.5625 24.9375 C-1.67019424 26.96566599 -3.88554059 26.41971199 -8.4375 25.375 C-10.8916541 21.69376884 -11.23901627 18.64975344 -10.4375 14.375 C-8.19695177 11.46228731 -6.48177629 10.56153485 -2.87890625 9.91796875 C-0.39520347 9.65374505 2.06713722 9.47190729 4.5625 9.375 C4.2325 8.385 3.9025 7.395 3.5625 6.375 C1.5825 6.375 -0.3975 6.375 -2.4375 6.375 C-2.7675 7.035 -3.0975 7.695 -3.4375 8.375 C-5.7475 8.375 -8.0575 8.375 -10.4375 8.375 C-10.09198153 5.81816329 -9.78134094 3.87074328 -8.296875 1.73046875 C-5.55760811 -0.26643379 -3.34954344 -0.02281187 0 0 Z " fill="#25115C" transform="translate(650.4375,511.625)"/>
<path d="M0 0 C1.13308594 -0.00773437 2.26617188 -0.01546875 3.43359375 -0.0234375 C6.89654146 0.41753712 8.07631554 0.99402817 10.5625 3.375 C11.0925293 5.51977539 11.0925293 5.51977539 11.13671875 7.97265625 C11.16443359 8.85630859 11.19214844 9.73996094 11.22070312 10.65039062 C11.23037109 11.57013672 11.24003906 12.48988281 11.25 13.4375 C11.29201119 15.26180425 11.33741816 17.08603444 11.38671875 18.91015625 C11.39791748 19.718479 11.40911621 20.52680176 11.4206543 21.35961914 C11.43807573 23.44557993 11.43807573 23.44557993 12.5625 25.375 C9.9225 25.375 7.2825 25.375 4.5625 25.375 C4.5625 24.715 4.5625 24.055 4.5625 23.375 C3.5725 24.1484375 3.5725 24.1484375 2.5625 24.9375 C-1.67019424 26.96566599 -3.88554059 26.41971199 -8.4375 25.375 C-10.8916541 21.69376884 -11.23901627 18.64975344 -10.4375 14.375 C-8.19695177 11.46228731 -6.48177629 10.56153485 -2.87890625 9.91796875 C-0.39520347 9.65374505 2.06713722 9.47190729 4.5625 9.375 C4.2325 8.385 3.9025 7.395 3.5625 6.375 C1.5825 6.375 -0.3975 6.375 -2.4375 6.375 C-2.7675 7.035 -3.0975 7.695 -3.4375 8.375 C-5.7475 8.375 -8.0575 8.375 -10.4375 8.375 C-10.09198153 5.81816329 -9.78134094 3.87074328 -8.296875 1.73046875 C-5.55760811 -0.26643379 -3.34954344 -0.02281187 0 0 Z " fill="#25115C" transform="translate(594.4375,511.625)"/>
<path d="M0 0 C1.13308594 -0.00773437 2.26617187 -0.01546875 3.43359375 -0.0234375 C6.89654146 0.41753712 8.07631554 0.99402817 10.5625 3.375 C11.0925293 5.51977539 11.0925293 5.51977539 11.13671875 7.97265625 C11.16443359 8.85630859 11.19214844 9.73996094 11.22070312 10.65039062 C11.23037109 11.57013672 11.24003906 12.48988281 11.25 13.4375 C11.29201119 15.26180425 11.33741816 17.08603444 11.38671875 18.91015625 C11.39791748 19.718479 11.40911621 20.52680176 11.4206543 21.35961914 C11.43807573 23.44557993 11.43807573 23.44557993 12.5625 25.375 C9.9225 25.375 7.2825 25.375 4.5625 25.375 C4.5625 24.715 4.5625 24.055 4.5625 23.375 C3.5725 24.1484375 3.5725 24.1484375 2.5625 24.9375 C-1.67019424 26.96566599 -3.88554059 26.41971199 -8.4375 25.375 C-10.8916541 21.69376884 -11.23901627 18.64975344 -10.4375 14.375 C-8.19695177 11.46228731 -6.48177629 10.56153485 -2.87890625 9.91796875 C-0.39520347 9.65374505 2.06713722 9.47190729 4.5625 9.375 C4.2325 8.385 3.9025 7.395 3.5625 6.375 C1.5825 6.375 -0.3975 6.375 -2.4375 6.375 C-2.7675 7.035 -3.0975 7.695 -3.4375 8.375 C-5.7475 8.375 -8.0575 8.375 -10.4375 8.375 C-10.09198153 5.81816329 -9.78134094 3.87074328 -8.296875 1.73046875 C-5.55760811 -0.26643379 -3.34954344 -0.02281187 0 0 Z " fill="#25115C" transform="translate(462.4375,511.625)"/>
<path d="M0 0 C3.79259576 2.04216695 7.00344184 4.11780358 9 8 C9 10.31 9 12.62 9 15 C3.39 15 -2.22 15 -8 15 C-7.34 16.65 -6.68 18.3 -6 20 C-4.00045254 20.04254356 -1.99958364 20.04080783 0 20 C0.33 19.67 0.66 19.34 1 19 C3.33297433 18.95907063 5.66705225 18.95758277 8 19 C7.65693498 21.48722141 7.18161626 22.79568171 5.5 24.6875 C1.76534022 26.64819639 -1.80102553 27.10934829 -6 27 C-9.92670999 25.76381352 -11.48773582 24.71716985 -13.875 21.375 C-15.62734989 16.11795033 -15.99337211 11.35272342 -13.8125 6.1875 C-9.61922844 1.12665501 -6.74795643 -0.9470816 0 0 Z " fill="#29145F" transform="translate(778,511)"/>
<path d="M0 0 C3.79259576 2.04216695 7.00344184 4.11780358 9 8 C9 10.31 9 12.62 9 15 C3.39 15 -2.22 15 -8 15 C-7.34 16.65 -6.68 18.3 -6 20 C-4.00045254 20.04254356 -1.99958364 20.04080783 0 20 C0.33 19.67 0.66 19.34 1 19 C3.33297433 18.95907063 5.66705225 18.95758277 8 19 C7.65693498 21.48722141 7.18161626 22.79568171 5.5 24.6875 C1.76534022 26.64819639 -1.80102553 27.10934829 -6 27 C-9.92670999 25.76381352 -11.48773582 24.71716985 -13.875 21.375 C-15.62734989 16.11795033 -15.99337211 11.35272342 -13.8125 6.1875 C-9.61922844 1.12665501 -6.74795643 -0.9470816 0 0 Z " fill="#29145F" transform="translate(709,511)"/>
<path d="M0 0 C1.98 0 3.96 0 6 0 C6 5.94 6 11.88 6 18 C6.66 18 7.32 18 8 18 C8.2475 17.443125 8.495 16.88625 8.75 16.3125 C10.31521926 13.41684437 11.59044436 11.28273692 14 9 C16.80033987 8.5654645 19.14235311 8.76186276 22 9 C21.3503125 9.79664063 21.3503125 9.79664063 20.6875 10.609375 C20.130625 11.31578125 19.57375 12.0221875 19 12.75 C18.443125 13.44609375 17.88625 14.1421875 17.3125 14.859375 C15.65152802 17.14984749 15.65152802 17.14984749 16 21 C17.52568676 24.06239396 17.52568676 24.06239396 19.5 27.1875 C23 32.93055556 23 32.93055556 23 34 C17.8301455 34.70099722 17.8301455 34.70099722 15 34 C12.36841056 31.26214685 10 27.89044106 10 24 C6.87393036 25.60480784 6.87393036 25.60480784 6.48828125 27.9453125 C6.43027344 28.66460938 6.37226562 29.38390625 6.3125 30.125 C6.1578125 32.043125 6.1578125 32.043125 6 34 C4.02 34 2.04 34 0 34 C0 22.78 0 11.56 0 0 Z " fill="#210F59" transform="translate(506,503)"/>
<path d="M0 0 C3.0525 -0.0825 6.105 -0.165 9.25 -0.25 C10.20551758 -0.28641602 11.16103516 -0.32283203 12.14550781 -0.36035156 C15.7813128 -0.40804938 18.33126815 -0.34645144 21.59375 1.34375 C23.87733341 5.65718534 23.41586738 9.95898453 23.25 14.75 C23.23195313 15.73355469 23.21390625 16.71710937 23.1953125 17.73046875 C23.14824126 20.15463783 23.08250742 22.57682059 23 25 C20.69 25 18.38 25 16 25 C15.67 18.73 15.34 12.46 15 6 C13.02 6 11.04 6 9 6 C7.48578999 7.51421001 7.78690144 8.92472768 7.68359375 11.03515625 C7.64169922 11.84404297 7.59980469 12.65292969 7.55664062 13.48632812 C7.51732422 14.33646484 7.47800781 15.18660156 7.4375 16.0625 C7.39431641 16.91650391 7.35113281 17.77050781 7.30664062 18.65039062 C7.20023298 20.76672037 7.09958269 22.88333813 7 25 C4.69 25 2.38 25 0 25 C0 16.75 0 8.5 0 0 Z " fill="#2A1560" transform="translate(791,512)"/>
<path d="M0 0 C3.0525 -0.0825 6.105 -0.165 9.25 -0.25 C10.20551758 -0.28641602 11.16103516 -0.32283203 12.14550781 -0.36035156 C15.7813128 -0.40804938 18.33126815 -0.34645144 21.59375 1.34375 C23.87733341 5.65718534 23.41586738 9.95898453 23.25 14.75 C23.23195313 15.73355469 23.21390625 16.71710937 23.1953125 17.73046875 C23.14824126 20.15463783 23.08250742 22.57682059 23 25 C20.69 25 18.38 25 16 25 C15.67 18.73 15.34 12.46 15 6 C13.02 6 11.04 6 9 6 C7.48578999 7.51421001 7.78690144 8.92472768 7.68359375 11.03515625 C7.64169922 11.84404297 7.59980469 12.65292969 7.55664062 13.48632812 C7.51732422 14.33646484 7.47800781 15.18660156 7.4375 16.0625 C7.39431641 16.91650391 7.35113281 17.77050781 7.30664062 18.65039062 C7.20023298 20.76672037 7.09958269 22.88333813 7 25 C4.69 25 2.38 25 0 25 C0 16.75 0 8.5 0 0 Z " fill="#2A1560" transform="translate(612,512)"/>
<path d="M0 0 C3.5625 1.75 3.5625 1.75 6 4 C6 5.32 6 6.64 6 8 C3.125 8.125 3.125 8.125 0 8 C-0.66 7.34 -1.32 6.68 -2 6 C-4.58354218 5.83312552 -4.58354218 5.83312552 -7 6 C-7 6.99 -7 7.98 -7 9 C-6.24074219 9.18175781 -5.48148437 9.36351562 -4.69921875 9.55078125 C-3.70535156 9.80214844 -2.71148437 10.05351563 -1.6875 10.3125 C-0.70136719 10.55613281 0.28476562 10.79976562 1.30078125 11.05078125 C4.0453913 12.0159625 5.29971987 12.67061622 7 15 C7.51948578 19.00746177 7.48299159 21.20120622 5.375 24.6875 C2.32432618 27.65789293 0.76443363 27.67357727 -3.4375 27.625 C-10.51368916 27.35467367 -10.51368916 27.35467367 -13.3125 24.75 C-15 22 -15 22 -15 18 C-12.125 17.8125 -12.125 17.8125 -9 18 C-8.34 18.99 -7.68 19.98 -7 21 C-3.41642759 21.25015873 -3.41642759 21.25015873 0 21 C0.33 20.01 0.66 19.02 1 18 C0.16855469 17.81824219 -0.66289062 17.63648438 -1.51953125 17.44921875 C-2.60621094 17.19785156 -3.69289063 16.94648437 -4.8125 16.6875 C-5.89144531 16.44386719 -6.97039062 16.20023438 -8.08203125 15.94921875 C-10.98888285 15.00361642 -12.27017195 14.479617 -14 12 C-14.3930429 8.90478713 -14.61295044 6.95763464 -14 4 C-10.31540759 -0.75431279 -5.60131625 -0.98268706 0 0 Z " fill="#2B1561" transform="translate(494,511)"/>
<path d="M0 0 C8.91 0 17.82 0 27 0 C27 1.98 27 3.96 27 6 C23.7 6 20.4 6 17 6 C17 15.24 17 24.48 17 34 C14.69 34 12.38 34 10 34 C10 24.76 10 15.52 10 6 C6.7 6 3.4 6 0 6 C0 4.02 0 2.04 0 0 Z " fill="#220F59" transform="translate(426,503)"/>
<path d="M0 0 C1.98 0 3.96 0 6 0 C6 2.31 6 4.62 6 7 C7.32 7 8.64 7 10 7 C10 8.65 10 10.3 10 12 C8.68 12 7.36 12 6 12 C6.33 16.95 6.66 21.9 7 27 C7.99 27.33 8.98 27.66 10 28 C10 29.32 10 30.64 10 32 C3.9453125 32.1953125 3.9453125 32.1953125 2 32 C0 30 0 30 -0.22705078 28.12060547 C-0.21657715 27.37697754 -0.20610352 26.63334961 -0.1953125 25.8671875 C-0.18886719 25.06152344 -0.18242188 24.25585938 -0.17578125 23.42578125 C-0.15902344 22.58402344 -0.14226563 21.74226562 -0.125 20.875 C-0.11597656 20.02550781 -0.10695313 19.17601562 -0.09765625 18.30078125 C-0.07405647 16.20040116 -0.03818483 14.10016556 0 12 C-1.32 12 -2.64 12 -4 12 C-4 10.35 -4 8.7 -4 7 C-2.68 7 -1.36 7 0 7 C0 4.69 0 2.38 0 0 Z " fill="#23105A" transform="translate(821,505)"/>
<path d="M0 0 C2.5625 0.3125 2.5625 0.3125 4.203125 1.546875 C5.93310127 3.79385567 5.93513038 5.06737357 5.875 7.875 C5.87113281 8.66003906 5.86726562 9.44507813 5.86328125 10.25390625 C5.5625 12.3125 5.5625 12.3125 3.5625 14.3125 C-0.0625 14.4375 -0.0625 14.4375 -3.4375 14.3125 C-5.66282845 9.99274478 -5.50183568 7.01331591 -4.4375 2.3125 C-2.4375 0.3125 -2.4375 0.3125 0 0 Z " fill="#D78AF3" transform="translate(677.4375,516.6875)"/>
<path d="M0 0 C5.61 0 11.22 0 17 0 C17 3 17 3 16 6 C16 5.34 16 4.68 16 4 C11.65815798 4.18464366 11.65815798 4.18464366 8 6 C5.0625 6.1875 5.0625 6.1875 2 6 C1.34 5.34 0.68 4.68 0 4 C0 2.68 0 1.36 0 0 Z " fill="#C880E6" transform="translate(770,526)"/>
<path d="M0 0 C5.61 0 11.22 0 17 0 C17 3 17 3 16 6 C16 5.34 16 4.68 16 4 C11.65815798 4.18464366 11.65815798 4.18464366 8 6 C5.0625 6.1875 5.0625 6.1875 2 6 C1.34 5.34 0.68 4.68 0 4 C0 2.68 0 1.36 0 0 Z " fill="#C880E6" transform="translate(701,526)"/>
<path d="M0 0 C0.125 2.375 0.125 2.375 0 5 C-2 7 -2 7 -5.625 7.125 C-6.73875 7.08375 -7.8525 7.0425 -9 7 C-9 6.34 -9 5.68 -9 5 C-11.64 5 -14.28 5 -17 5 C-17 4.67 -17 4.34 -17 4 C-15.02 3.67 -13.04 3.34 -11 3 C-11.33 2.34 -11.66 1.68 -12 1 C-9.98177083 1.03255208 -7.96354167 1.06510417 -5.9453125 1.09765625 C-3.67210333 0.98353932 -2.2885712 0 0 0 Z " fill="#CD83EA" transform="translate(683,535)"/>
<path d="M0 0 C0.25 2.3125 0.25 2.3125 0 5 C-1.6875 6.875 -1.6875 6.875 -4 8 C-6.75 7.6875 -6.75 7.6875 -9 7 C-8.8125 4.625 -8.8125 4.625 -8 2 C-5.11090151 0.40339294 -3.30941204 0 0 0 Z " fill="#CA81E8" transform="translate(655,525)"/>
<path d="M0 0 C0.25 2.3125 0.25 2.3125 0 5 C-1.6875 6.875 -1.6875 6.875 -4 8 C-6.75 7.6875 -6.75 7.6875 -9 7 C-8.8125 4.625 -8.8125 4.625 -8 2 C-5.11090151 0.40339294 -3.30941204 0 0 0 Z " fill="#CA81E8" transform="translate(599,525)"/>
<path d="M0 0 C0.25 2.3125 0.25 2.3125 0 5 C-1.6875 6.875 -1.6875 6.875 -4 8 C-6.75 7.6875 -6.75 7.6875 -9 7 C-8.8125 4.625 -8.8125 4.625 -8 2 C-5.11090151 0.40339294 -3.30941204 0 0 0 Z " fill="#CA81E8" transform="translate(467,525)"/>
<path d="M0 0 C2.375 -0.125 2.375 -0.125 5 0 C5.66 0.66 6.32 1.32 7 2 C8.98821313 2.39764263 10.98944339 2.73775349 13 3 C13.33 2.34 13.66 1.68 14 1 C14 2.32 14 3.64 14 5 C3.44191344 6.51708428 3.44191344 6.51708428 -1 4 C-0.67 2.68 -0.34 1.36 0 0 Z " fill="#BE79DE" transform="translate(487,516)"/>
<path d="M0 0 C4.455 0.99 4.455 0.99 9 2 C8.67 3.32 8.34 4.64 8 6 C5.66705225 6.04241723 3.33297433 6.04092937 1 6 C0 5 0 5 -0.0625 2.4375 C-0.041875 1.633125 -0.02125 0.82875 0 0 Z " fill="#C67FE5" transform="translate(486,527)"/>
<path d="M0 0 C3.0625 0.1875 3.0625 0.1875 5.0625 2.1875 C5.0625 3.1775 5.0625 4.1675 5.0625 5.1875 C1.7625 5.1875 -1.5375 5.1875 -4.9375 5.1875 C-3.69966216 0.23614865 -3.69966216 0.23614865 0 0 Z " fill="#CB82E9" transform="translate(774.9375,516.8125)"/>
<path d="M0 0 C3.0625 0.1875 3.0625 0.1875 5.0625 2.1875 C5.0625 3.1775 5.0625 4.1675 5.0625 5.1875 C1.7625 5.1875 -1.5375 5.1875 -4.9375 5.1875 C-3.69966216 0.23614865 -3.69966216 0.23614865 0 0 Z " fill="#CB82E9" transform="translate(705.9375,516.8125)"/>
<path d="M0 0 C1.98 0 3.96 0 6 0 C6.33 1.32 6.66 2.64 7 4 C4.05613377 5.47193312 1.62609964 4.84936173 -1.625 4.5625 C-2.81351563 4.46066406 -4.00203125 4.35882812 -5.2265625 4.25390625 C-6.14179687 4.17011719 -7.05703125 4.08632813 -8 4 C-8 3.67 -8 3.34 -8 3 C-5.69 3 -3.38 3 -1 3 C-0.67 2.01 -0.34 1.02 0 0 Z " fill="#CC82EA" transform="translate(648,517)"/>
<path d="M0 0 C1.98 0 3.96 0 6 0 C6.33 1.32 6.66 2.64 7 4 C4.05613377 5.47193312 1.62609964 4.84936173 -1.625 4.5625 C-2.81351563 4.46066406 -4.00203125 4.35882812 -5.2265625 4.25390625 C-6.14179687 4.17011719 -7.05703125 4.08632813 -8 4 C-8 3.67 -8 3.34 -8 3 C-5.69 3 -3.38 3 -1 3 C-0.67 2.01 -0.34 1.02 0 0 Z " fill="#CC82EA" transform="translate(592,517)"/>
<path d="M0 0 C1.98 0 3.96 0 6 0 C6.33 1.32 6.66 2.64 7 4 C4.05613377 5.47193312 1.62609964 4.84936173 -1.625 4.5625 C-2.81351562 4.46066406 -4.00203125 4.35882812 -5.2265625 4.25390625 C-6.14179688 4.17011719 -7.05703125 4.08632813 -8 4 C-8 3.67 -8 3.34 -8 3 C-5.69 3 -3.38 3 -1 3 C-0.67 2.01 -0.34 1.02 0 0 Z " fill="#CC82EA" transform="translate(460,517)"/>
<path d="M0 0 C1.95216435 3.90432869 2.50639991 6.72213252 3 11 C2.67 11 2.34 11 2 11 C1.67 15.95 1.34 20.9 1 26 C0.67 26 0.34 26 0 26 C0 17.42 0 8.84 0 0 Z " fill="#BE78DD" transform="translate(553,511)"/>
<path d="M0 0 C1.794375 0.2165625 1.794375 0.2165625 3.625 0.4375 C3.625 0.7675 3.625 1.0975 3.625 1.4375 C2.573125 1.664375 1.52125 1.89125 0.4375 2.125 C-3.5347906 3.23110531 -5.67099637 5.32379885 -8.375 8.4375 C-9.035 8.1075 -9.695 7.7775 -10.375 7.4375 C-5.32143307 -0.06628119 -5.32143307 -0.06628119 0 0 Z " fill="#3C206E" transform="translate(524.375,511.5625)"/>
<path d="M0 0 C-1.15173355 2.46800047 -2.04783565 4.04783565 -4 6 C-2.35 6.33 -0.7 6.66 1 7 C1 7.33 1 7.66 1 8 C-1.31 8 -3.62 8 -6 8 C-5.62403791 5.21788056 -5.32681541 3.4120716 -3.5625 1.1875 C-2 0 -2 0 0 0 Z " fill="#422573" transform="translate(646,512)"/>
<path d="M0 0 C-1.15173355 2.46800047 -2.04783565 4.04783565 -4 6 C-2.35 6.33 -0.7 6.66 1 7 C1 7.33 1 7.66 1 8 C-1.31 8 -3.62 8 -6 8 C-5.62403791 5.21788056 -5.32681541 3.4120716 -3.5625 1.1875 C-2 0 -2 0 0 0 Z " fill="#422573" transform="translate(590,512)"/>
<path d="M0 0 C-1.15173355 2.46800047 -2.04783565 4.04783565 -4 6 C-2.35 6.33 -0.7 6.66 1 7 C1 7.33 1 7.66 1 8 C-1.31 8 -3.62 8 -6 8 C-5.62403791 5.21788056 -5.32681541 3.4120716 -3.5625 1.1875 C-2 0 -2 0 0 0 Z " fill="#422573" transform="translate(458,512)"/>
</svg>
